<svg xmlns="http://www.w3.org/2000/svg" xmlns:xlink="http://www.w3.org/1999/xlink" width="640" zoomAndPan="magnify" viewBox="0 0 480 705.000001" height="940" preserveAspectRatio="xMidYMid meet" version="1.0"><defs><clipPath id="41f4799e55"><path d="M 52 112.339844 L 458 112.339844 L 458 591 L 52 591 Z M 52 112.339844 " clip-rule="nonzero"/></clipPath></defs><g clip-path="url(#41f4799e55)"><path fill="#3dd2cc" d="M 217.542969 112.339844 L 243.445312 112.339844 C 269.039062 114.84375 276.601562 132.808594 279.746094 155.125 C 288.222656 215.203125 284.75 276.652344 280.160156 336.882812 C 280.109375 337.515625 280.191406 338.132812 280.40625 338.730469 C 280.621094 339.328125 280.945312 339.859375 281.386719 340.316406 C 339.3125 400.90625 397.382812 461.644531 455.589844 522.523438 C 457.621094 524.652344 457.671875 527.222656 454.402344 527.929688 C 402.589844 539.09375 347.25 550.453125 288.382812 562 C 288.070312 562.066406 287.773438 562.011719 287.492188 561.847656 C 286.839844 561.449219 286.277344 560.96875 285.796875 560.398438 C 261.902344 531.921875 238.101562 503.558594 214.398438 475.3125 C 214.316406 475.214844 214.222656 475.128906 214.117188 475.054688 C 214.015625 474.980469 213.902344 474.921875 213.785156 474.878906 C 213.667969 474.832031 213.542969 474.804688 213.417969 474.789062 C 213.292969 474.777344 213.164062 474.777344 213.039062 474.796875 C 212.914062 474.8125 212.792969 474.847656 212.675781 474.898438 C 212.558594 474.945312 212.449219 475.007812 212.347656 475.085938 C 212.246094 475.164062 212.15625 475.25 212.078125 475.351562 C 212 475.449219 211.9375 475.558594 211.886719 475.675781 L 162.523438 589.714844 C 162.371094 590.066406 162.132812 590.34375 161.804688 590.542969 C 161.476562 590.746094 161.125 590.835938 160.742188 590.816406 C 160.359375 590.796875 160.015625 590.667969 159.710938 590.433594 C 159.410156 590.199219 159.199219 589.898438 159.082031 589.53125 L 130.832031 498.507812 C 130.785156 498.363281 130.710938 498.238281 130.597656 498.128906 C 130.488281 498.023438 130.359375 497.949219 130.210938 497.910156 C 130.0625 497.871094 129.914062 497.871094 129.765625 497.90625 C 129.617188 497.941406 129.488281 498.011719 129.375 498.117188 C 105.441406 520.058594 81.902344 541.980469 58.761719 563.890625 C 56.855469 565.691406 54.714844 566.054688 53.019531 563.859375 C 52.828125 563.609375 52.730469 563.328125 52.722656 563.015625 C 52.683594 561.464844 52.644531 559.929688 52.933594 558.359375 C 64.386719 495.175781 75.558594 431.945312 86.457031 368.660156 C 87.550781 362.316406 89.949219 356.511719 93.65625 351.253906 C 120.128906 313.648438 146.632812 275.90625 173.175781 238.027344 C 173.339844 237.796875 173.457031 237.542969 173.53125 237.269531 C 173.609375 236.996094 173.636719 236.71875 173.613281 236.433594 C 173.589844 236.152344 173.523438 235.878906 173.40625 235.621094 C 173.289062 235.359375 173.132812 235.128906 172.933594 234.921875 L 83.082031 140.917969 C 82.871094 140.695312 82.753906 140.425781 82.726562 140.113281 C 82.429688 136.679688 84.875 136.585938 87.414062 135.921875 C 130.175781 124.886719 173.550781 117.023438 217.542969 112.339844 Z M 254.832031 121.515625 C 240.664062 118.582031 226.550781 117.738281 212.277344 119.597656 C 211.996094 119.632812 211.757812 119.75 211.5625 119.953125 C 211.363281 120.15625 211.25 120.394531 211.21875 120.679688 C 211.1875 120.960938 211.246094 121.222656 211.398438 121.460938 C 211.546875 121.703125 211.753906 121.875 212.019531 121.976562 C 227.515625 127.675781 240.585938 136.902344 251.226562 149.652344 C 253.316406 152.164062 256.230469 152.710938 257.371094 149 C 258.203125 146.320312 259.789062 141.394531 262.128906 134.21875 C 264.582031 126.699219 262.882812 123.183594 254.832031 121.515625 Z M 253.75 158.949219 C 254.492188 157.5 254.570312 156.363281 253.988281 155.535156 C 240.261719 136.105469 216.238281 118.839844 191.253906 121.832031 C 159.621094 125.628906 128.066406 131.832031 96.597656 140.449219 C 96.242188 140.542969 96.015625 140.695312 95.917969 140.898438 C 95.828125 141.082031 95.816406 141.269531 95.875 141.464844 C 95.9375 141.660156 96.054688 141.8125 96.234375 141.914062 C 134.988281 164.125 172.988281 187.65625 210.234375 212.507812 C 215.175781 215.800781 219.09375 220.039062 221.988281 225.21875 C 240.289062 257.988281 257.179688 291.492188 273.382812 325.265625 C 273.492188 325.503906 273.675781 325.597656 273.9375 325.550781 C 274.195312 325.5 274.332031 325.34375 274.351562 325.082031 C 277.40625 290.527344 278.863281 255.960938 278.722656 221.386719 C 278.691406 214.785156 277.402344 206.746094 274.859375 197.265625 C 274.808594 197.101562 274.855469 196.96875 275 196.871094 C 275.144531 196.769531 275.289062 196.773438 275.433594 196.875 L 276.804688 197.871094 C 276.945312 197.976562 277.09375 197.988281 277.253906 197.90625 C 277.410156 197.824219 277.492188 197.695312 277.496094 197.515625 C 277.441406 175.257812 274.078125 153.664062 267.398438 132.742188 C 267.113281 131.847656 266.738281 131.359375 266.277344 131.285156 C 266.035156 131.238281 265.789062 131.238281 265.546875 131.285156 C 265.300781 131.332031 265.074219 131.417969 264.859375 131.546875 C 264.648438 131.675781 264.460938 131.835938 264.308594 132.03125 C 264.152344 132.226562 264.035156 132.445312 263.957031 132.683594 C 261.753906 139.484375 259.558594 146.140625 257.371094 152.652344 C 256.546875 155.085938 257.441406 158.039062 254.105469 159.34375 C 253.644531 159.523438 253.523438 159.390625 253.75 158.949219 Z M 192.269531 207.09375 L 106.128906 154.558594 C 106.0625 154.519531 105.992188 154.5 105.917969 154.496094 C 105.84375 154.492188 105.773438 154.507812 105.707031 154.539062 C 105.640625 154.574219 105.585938 154.621094 105.542969 154.683594 C 105.503906 154.746094 105.480469 154.8125 105.476562 154.886719 C 105.445312 155.167969 105.53125 155.414062 105.734375 155.625 C 129.445312 180.542969 153.195312 205.402344 176.980469 230.207031 C 177.105469 230.335938 177.25 230.433594 177.417969 230.496094 C 177.585938 230.5625 177.761719 230.585938 177.941406 230.574219 C 178.121094 230.558594 178.289062 230.507812 178.441406 230.417969 C 178.597656 230.328125 178.726562 230.210938 178.832031 230.0625 L 192.875 209.988281 C 193.035156 209.757812 193.144531 209.507812 193.199219 209.230469 C 193.253906 208.957031 193.253906 208.683594 193.199219 208.410156 C 193.140625 208.136719 193.03125 207.882812 192.871094 207.65625 C 192.710938 207.425781 192.511719 207.238281 192.269531 207.09375 Z M 205.144531 221.164062 C 206.199219 217.808594 206.105469 214.867188 202.480469 213.542969 C 199.949219 212.625 197.820312 213.746094 196.269531 215.949219 C 173.703125 247.996094 151.175781 280.078125 128.695312 312.199219 C 128.59375 312.359375 128.613281 312.503906 128.753906 312.636719 C 128.894531 312.765625 129.039062 312.773438 129.191406 312.65625 C 129.824219 312.132812 130.59375 311.398438 131.492188 310.453125 C 147.09375 294.113281 160.199219 279.636719 170.808594 267.027344 C 174.304688 262.871094 178.082031 258.683594 182.136719 254.460938 C 191.953125 244.269531 200.824219 234.914062 205.144531 221.164062 Z M 200.851562 243.683594 L 261.015625 317.289062 C 261.035156 317.3125 261.058594 317.316406 261.082031 317.296875 C 261.109375 317.277344 261.109375 317.257812 261.09375 317.230469 C 251.699219 291.214844 238.007812 267.226562 225.066406 242.964844 C 221.355469 236.003906 217.472656 229.820312 213.265625 223.535156 C 213.003906 223.152344 212.644531 222.984375 212.183594 223.027344 C 211.722656 223.070312 211.398438 223.300781 211.214844 223.726562 C 208.300781 230.402344 204.832031 236.773438 200.8125 242.839844 C 200.621094 243.128906 200.632812 243.410156 200.851562 243.683594 Z M 97.882812 358.691406 C 96.472656 362.367188 96.324219 366.050781 97.441406 369.746094 C 116.109375 431.671875 137.179688 499.429688 160.65625 573.015625 C 160.898438 573.789062 161.25 574.183594 161.710938 574.203125 C 162.246094 574.230469 162.621094 573.992188 162.832031 573.496094 C 182.136719 527.988281 201.003906 482.652344 221.777344 438.078125 C 221.925781 437.75 221.84375 437.496094 221.539062 437.308594 L 98.726562 362.851562 C 98.492188 362.707031 98.351562 362.496094 98.316406 362.21875 L 97.882812 358.691406 L 266.929688 340.785156 C 267.261719 340.753906 267.589844 340.796875 267.90625 340.917969 C 269.21875 341.421875 270.574219 341.488281 271.972656 341.109375 C 272.28125 341.027344 272.445312 340.828125 272.472656 340.515625 C 272.882812 335.398438 267.207031 329.519531 263.726562 325.292969 C 252.683594 311.871094 241.355469 298.757812 230.558594 285.058594 C 220.191406 271.917969 209.644531 258.929688 198.914062 246.089844 C 198.734375 245.871094 198.558594 245.871094 198.378906 246.089844 C 197.175781 247.496094 195.957031 248.882812 194.726562 250.25 C 163.359375 284.972656 131.996094 319.691406 100.636719 354.40625 C 99.492188 355.671875 98.574219 357.101562 97.882812 358.691406 Z M 101.792969 361.289062 L 222.738281 434.570312 C 222.929688 434.691406 223.09375 434.617188 223.234375 434.347656 L 271.167969 344.425781 C 271.257812 344.253906 271.207031 344.179688 271.015625 344.199219 L 101.851562 361.039062 C 101.582031 361.066406 101.566406 361.148438 101.792969 361.289062 Z M 291.789062 552.730469 L 379.445312 452.726562 C 379.714844 452.425781 379.714844 452.132812 379.445312 451.851562 L 279.71875 347.417969 C 279.578125 347.269531 279.40625 347.171875 279.203125 347.128906 C 279 347.089844 278.804688 347.109375 278.613281 347.191406 C 278.425781 347.277344 278.277344 347.40625 278.171875 347.582031 C 278.0625 347.757812 278.015625 347.949219 278.03125 348.15625 L 291.355469 552.585938 C 291.367188 552.695312 291.421875 552.765625 291.527344 552.796875 C 291.628906 552.832031 291.714844 552.808594 291.789062 552.730469 Z M 286.984375 546.546875 C 283.695312 481.054688 279.710938 415.601562 275.039062 350.1875 C 275.042969 350.105469 275.003906 350.058594 274.925781 350.042969 C 274.847656 350.023438 274.792969 350.054688 274.761719 350.132812 L 215.75 462.753906 C 215.542969 463.140625 215.402344 463.554688 215.320312 463.988281 C 215.238281 464.421875 215.222656 464.855469 215.269531 465.292969 C 215.316406 465.734375 215.425781 466.15625 215.601562 466.5625 C 215.773438 466.96875 216 467.339844 216.285156 467.679688 L 287.328125 552.222656 C 288.089844 553.128906 288.4375 552.992188 288.375 551.808594 L 288.183594 548.148438 C 288.175781 547.996094 288.109375 547.875 287.980469 547.792969 L 287.539062 547.515625 C 287.1875 547.292969 287.003906 546.96875 286.984375 546.546875 Z M 91.421875 376.023438 L 60.996094 550.457031 C 60.957031 550.707031 61.050781 550.886719 61.273438 551 C 61.5 551.113281 61.699219 551.078125 61.878906 550.898438 C 65.539062 546.980469 68.234375 541.535156 70.449219 538.0625 C 86.609375 512.699219 102.742188 487.417969 118.847656 462.226562 C 119.179688 461.707031 119.253906 461.15625 119.070312 460.578125 L 92.746094 375.9375 C 92.699219 375.785156 92.613281 375.664062 92.480469 375.574219 C 92.351562 375.484375 92.207031 375.445312 92.050781 375.457031 C 91.890625 375.464844 91.753906 375.523438 91.636719 375.628906 C 91.519531 375.738281 91.449219 375.867188 91.421875 376.023438 Z M 381.507812 454.804688 L 295.269531 553.304688 C 295.097656 553.5 295.074219 553.707031 295.203125 553.929688 C 295.332031 554.152344 295.523438 554.238281 295.777344 554.1875 C 345.667969 544.132812 395.40625 534.105469 444.988281 524.105469 C 445.308594 524.042969 445.582031 523.9375 445.8125 523.796875 C 446.132812 523.605469 446.355469 523.421875 446.484375 523.242188 C 446.628906 523.050781 446.695312 522.835938 446.683594 522.601562 C 446.671875 522.367188 446.585938 522.164062 446.425781 521.996094 L 382.253906 454.796875 C 382 454.527344 381.75 454.53125 381.507812 454.804688 Z M 120.105469 465.859375 L 70.332031 544.3125 C 70.289062 544.367188 70.292969 544.417969 70.347656 544.460938 C 70.402344 544.507812 70.449219 544.5 70.496094 544.449219 L 127.976562 490.535156 C 128.191406 490.328125 128.257812 490.085938 128.175781 489.804688 L 120.707031 465.878906 C 120.574219 465.449219 120.375 465.441406 120.105469 465.859375 Z M 120.105469 465.859375 " fill-opacity="1" fill-rule="nonzero"/></g><path fill="#3dd2cc" d="M 220.4375 214.101562 L 252.347656 161.25 C 252.746094 160.597656 252.800781 160.628906 252.511719 161.335938 C 244.683594 180.664062 234.066406 198.304688 220.667969 214.261719 C 219.898438 215.171875 219.824219 215.117188 220.4375 214.101562 Z M 220.4375 214.101562 " fill-opacity="1" fill-rule="nonzero"/><path fill="#3dd2cc" d="M 265.128906 170.675781 C 265.246094 170.625 265.328125 170.660156 265.378906 170.78125 L 269.835938 182.042969 C 270.152344 182.84375 270.460938 183.632812 270.761719 184.421875 C 271.0625 185.207031 271.347656 185.972656 271.625 186.71875 C 271.898438 187.464844 272.152344 188.171875 272.390625 188.847656 C 272.628906 189.519531 272.84375 190.144531 273.035156 190.722656 C 273.222656 191.300781 273.386719 191.820312 273.527344 192.277344 C 273.664062 192.738281 273.769531 193.128906 273.847656 193.453125 C 273.929688 193.773438 273.976562 194.023438 273.992188 194.195312 C 274.007812 194.371094 273.992188 194.46875 273.949219 194.488281 C 273.902344 194.503906 273.824219 194.445312 273.71875 194.308594 C 273.613281 194.171875 273.476562 193.960938 273.3125 193.671875 C 273.148438 193.382812 272.960938 193.023438 272.746094 192.59375 C 272.53125 192.167969 272.296875 191.675781 272.039062 191.125 C 271.785156 190.574219 271.511719 189.96875 271.222656 189.316406 C 270.933594 188.660156 270.632812 187.96875 270.324219 187.238281 C 270.015625 186.503906 269.699219 185.75 269.378906 184.96875 C 269.058594 184.1875 268.742188 183.398438 268.425781 182.597656 L 263.976562 171.34375 C 263.929688 171.226562 263.964844 171.144531 264.082031 171.097656 Z M 265.128906 170.675781 " fill-opacity="1" fill-rule="nonzero"/></svg>